<mxfile host="app.diagrams.net" modified="2023-05-17T01:11:27.016Z" agent="Mozilla/5.0 (Windows NT 10.0; Win64; x64) AppleWebKit/537.36 (KHTML, like Gecko) Chrome/113.0.0.0 Safari/537.36 Edg/113.0.1774.35" etag="Zy7xnB8O53xDptkuxMmd" version="21.3.2" type="github">
  <diagram id="C5RBs43oDa-KdzZeNtuy" name="Page-1">
    <mxGraphModel dx="499" dy="973" grid="1" gridSize="10" guides="1" tooltips="1" connect="1" arrows="1" fold="1" page="1" pageScale="1" pageWidth="827" pageHeight="1169" math="0" shadow="0">
      <root>
        <mxCell id="WIyWlLk6GJQsqaUBKTNV-0" />
        <mxCell id="WIyWlLk6GJQsqaUBKTNV-1" parent="WIyWlLk6GJQsqaUBKTNV-0" />
        <mxCell id="1wpc4b6oKfYbPvFzZ_pv-2" value="" style="edgeStyle=orthogonalEdgeStyle;rounded=0;orthogonalLoop=1;jettySize=auto;html=1;labelBackgroundColor=none;endArrow=block;endFill=0;endSize=8;strokeWidth=1;shadow=0;" edge="1" parent="WIyWlLk6GJQsqaUBKTNV-1" source="WIyWlLk6GJQsqaUBKTNV-3" target="1wpc4b6oKfYbPvFzZ_pv-1">
          <mxGeometry relative="1" as="geometry" />
        </mxCell>
        <mxCell id="WIyWlLk6GJQsqaUBKTNV-3" value="&lt;font face=&quot;Verdana&quot;&gt;开始&lt;/font&gt;" style="rounded=1;whiteSpace=wrap;html=1;fontSize=12;glass=0;strokeWidth=1;shadow=0;" parent="WIyWlLk6GJQsqaUBKTNV-1" vertex="1">
          <mxGeometry x="160" y="80" width="120" height="40" as="geometry" />
        </mxCell>
        <mxCell id="WIyWlLk6GJQsqaUBKTNV-8" value="合法" style="rounded=0;html=1;jettySize=auto;orthogonalLoop=1;fontSize=11;endArrow=block;endFill=0;endSize=8;strokeWidth=1;shadow=0;labelBackgroundColor=none;edgeStyle=orthogonalEdgeStyle;entryX=0.5;entryY=0;entryDx=0;entryDy=0;" parent="WIyWlLk6GJQsqaUBKTNV-1" source="WIyWlLk6GJQsqaUBKTNV-10" target="1wpc4b6oKfYbPvFzZ_pv-11" edge="1">
          <mxGeometry x="-0.0588" y="20" relative="1" as="geometry">
            <mxPoint as="offset" />
          </mxGeometry>
        </mxCell>
        <mxCell id="WIyWlLk6GJQsqaUBKTNV-9" value="不合法" style="edgeStyle=orthogonalEdgeStyle;rounded=0;html=1;jettySize=auto;orthogonalLoop=1;fontSize=11;endArrow=block;endFill=0;endSize=8;strokeWidth=1;shadow=0;labelBackgroundColor=none;" parent="WIyWlLk6GJQsqaUBKTNV-1" source="WIyWlLk6GJQsqaUBKTNV-10" target="WIyWlLk6GJQsqaUBKTNV-12" edge="1">
          <mxGeometry x="-0.0909" y="20" relative="1" as="geometry">
            <mxPoint as="offset" />
          </mxGeometry>
        </mxCell>
        <mxCell id="WIyWlLk6GJQsqaUBKTNV-10" value="&lt;font face=&quot;Verdana&quot;&gt;数据合法性检查&lt;/font&gt;" style="rhombus;whiteSpace=wrap;html=1;shadow=0;fontFamily=Helvetica;fontSize=12;align=center;strokeWidth=1;spacing=6;spacingTop=-4;" parent="WIyWlLk6GJQsqaUBKTNV-1" vertex="1">
          <mxGeometry x="170" y="330" width="100" height="80" as="geometry" />
        </mxCell>
        <mxCell id="WIyWlLk6GJQsqaUBKTNV-11" value="&lt;font face=&quot;Verdana&quot;&gt;结束&lt;/font&gt;" style="rounded=1;whiteSpace=wrap;html=1;fontSize=12;glass=0;strokeWidth=1;shadow=0;" parent="WIyWlLk6GJQsqaUBKTNV-1" vertex="1">
          <mxGeometry x="160" y="690" width="120" height="40" as="geometry" />
        </mxCell>
        <mxCell id="1wpc4b6oKfYbPvFzZ_pv-21" style="edgeStyle=orthogonalEdgeStyle;rounded=0;orthogonalLoop=1;jettySize=auto;html=1;labelBackgroundColor=none;endArrow=block;endFill=0;endSize=8;strokeWidth=1;shadow=0;" edge="1" parent="WIyWlLk6GJQsqaUBKTNV-1" source="WIyWlLk6GJQsqaUBKTNV-12">
          <mxGeometry relative="1" as="geometry">
            <mxPoint x="220" y="140" as="targetPoint" />
            <Array as="points">
              <mxPoint x="400" y="130" />
              <mxPoint x="221" y="130" />
              <mxPoint x="221" y="140" />
            </Array>
          </mxGeometry>
        </mxCell>
        <mxCell id="WIyWlLk6GJQsqaUBKTNV-12" value="输出提示" style="rounded=1;whiteSpace=wrap;html=1;fontSize=12;glass=0;strokeWidth=1;shadow=0;" parent="WIyWlLk6GJQsqaUBKTNV-1" vertex="1">
          <mxGeometry x="340" y="350" width="120" height="40" as="geometry" />
        </mxCell>
        <mxCell id="1wpc4b6oKfYbPvFzZ_pv-8" value="" style="edgeStyle=orthogonalEdgeStyle;rounded=0;orthogonalLoop=1;jettySize=auto;html=1;labelBackgroundColor=none;endArrow=block;endFill=0;endSize=8;strokeWidth=1;shadow=0;" edge="1" parent="WIyWlLk6GJQsqaUBKTNV-1" source="1wpc4b6oKfYbPvFzZ_pv-1" target="1wpc4b6oKfYbPvFzZ_pv-3">
          <mxGeometry relative="1" as="geometry" />
        </mxCell>
        <mxCell id="1wpc4b6oKfYbPvFzZ_pv-1" value="&lt;font face=&quot;Verdana&quot;&gt;输入翻译原文&lt;/font&gt;" style="rounded=0;whiteSpace=wrap;html=1;" vertex="1" parent="WIyWlLk6GJQsqaUBKTNV-1">
          <mxGeometry x="160" y="150" width="120" height="40" as="geometry" />
        </mxCell>
        <mxCell id="1wpc4b6oKfYbPvFzZ_pv-9" value="" style="edgeStyle=orthogonalEdgeStyle;rounded=0;orthogonalLoop=1;jettySize=auto;html=1;labelBackgroundColor=none;endArrow=block;endFill=0;endSize=8;strokeWidth=1;shadow=0;" edge="1" parent="WIyWlLk6GJQsqaUBKTNV-1" source="1wpc4b6oKfYbPvFzZ_pv-3" target="1wpc4b6oKfYbPvFzZ_pv-4">
          <mxGeometry relative="1" as="geometry" />
        </mxCell>
        <mxCell id="1wpc4b6oKfYbPvFzZ_pv-3" value="&lt;font face=&quot;Verdana&quot;&gt;选择翻译方向&lt;/font&gt;" style="rounded=0;whiteSpace=wrap;html=1;" vertex="1" parent="WIyWlLk6GJQsqaUBKTNV-1">
          <mxGeometry x="160" y="210" width="120" height="40" as="geometry" />
        </mxCell>
        <mxCell id="1wpc4b6oKfYbPvFzZ_pv-10" value="" style="edgeStyle=orthogonalEdgeStyle;rounded=0;orthogonalLoop=1;jettySize=auto;html=1;" edge="1" parent="WIyWlLk6GJQsqaUBKTNV-1" source="1wpc4b6oKfYbPvFzZ_pv-4" target="WIyWlLk6GJQsqaUBKTNV-10">
          <mxGeometry relative="1" as="geometry" />
        </mxCell>
        <mxCell id="1wpc4b6oKfYbPvFzZ_pv-12" value="" style="edgeStyle=orthogonalEdgeStyle;rounded=0;orthogonalLoop=1;jettySize=auto;html=1;labelBackgroundColor=none;endArrow=block;endFill=0;endSize=8;strokeWidth=1;shadow=0;" edge="1" parent="WIyWlLk6GJQsqaUBKTNV-1" source="1wpc4b6oKfYbPvFzZ_pv-4" target="WIyWlLk6GJQsqaUBKTNV-10">
          <mxGeometry relative="1" as="geometry" />
        </mxCell>
        <mxCell id="1wpc4b6oKfYbPvFzZ_pv-4" value="&lt;font face=&quot;Verdana&quot;&gt;提交&lt;/font&gt;" style="rounded=0;whiteSpace=wrap;html=1;" vertex="1" parent="WIyWlLk6GJQsqaUBKTNV-1">
          <mxGeometry x="160" y="270" width="120" height="40" as="geometry" />
        </mxCell>
        <mxCell id="1wpc4b6oKfYbPvFzZ_pv-16" value="" style="edgeStyle=orthogonalEdgeStyle;rounded=0;orthogonalLoop=1;jettySize=auto;html=1;labelBackgroundColor=none;endArrow=block;endFill=0;endSize=8;strokeWidth=1;shadow=0;" edge="1" parent="WIyWlLk6GJQsqaUBKTNV-1" source="1wpc4b6oKfYbPvFzZ_pv-11" target="1wpc4b6oKfYbPvFzZ_pv-13">
          <mxGeometry relative="1" as="geometry" />
        </mxCell>
        <mxCell id="1wpc4b6oKfYbPvFzZ_pv-11" value="&lt;font face=&quot;Verdana&quot;&gt;数据预处理&lt;/font&gt;" style="rounded=0;whiteSpace=wrap;html=1;" vertex="1" parent="WIyWlLk6GJQsqaUBKTNV-1">
          <mxGeometry x="160" y="450" width="120" height="40" as="geometry" />
        </mxCell>
        <mxCell id="1wpc4b6oKfYbPvFzZ_pv-17" value="" style="edgeStyle=orthogonalEdgeStyle;rounded=0;orthogonalLoop=1;jettySize=auto;html=1;labelBackgroundColor=none;endArrow=block;endFill=0;endSize=8;strokeWidth=1;shadow=0;" edge="1" parent="WIyWlLk6GJQsqaUBKTNV-1" source="1wpc4b6oKfYbPvFzZ_pv-13" target="1wpc4b6oKfYbPvFzZ_pv-14">
          <mxGeometry relative="1" as="geometry" />
        </mxCell>
        <mxCell id="1wpc4b6oKfYbPvFzZ_pv-13" value="&lt;font face=&quot;Verdana&quot;&gt;模型生成结果&lt;/font&gt;" style="rounded=0;whiteSpace=wrap;html=1;" vertex="1" parent="WIyWlLk6GJQsqaUBKTNV-1">
          <mxGeometry x="160" y="510" width="120" height="40" as="geometry" />
        </mxCell>
        <mxCell id="1wpc4b6oKfYbPvFzZ_pv-18" value="" style="edgeStyle=orthogonalEdgeStyle;rounded=0;orthogonalLoop=1;jettySize=auto;html=1;labelBackgroundColor=none;endArrow=block;endFill=0;endSize=8;strokeWidth=1;shadow=0;" edge="1" parent="WIyWlLk6GJQsqaUBKTNV-1" source="1wpc4b6oKfYbPvFzZ_pv-14" target="1wpc4b6oKfYbPvFzZ_pv-15">
          <mxGeometry relative="1" as="geometry" />
        </mxCell>
        <mxCell id="1wpc4b6oKfYbPvFzZ_pv-14" value="&lt;font face=&quot;Verdana&quot;&gt;数据处理&lt;/font&gt;" style="rounded=0;whiteSpace=wrap;html=1;" vertex="1" parent="WIyWlLk6GJQsqaUBKTNV-1">
          <mxGeometry x="160" y="565" width="120" height="40" as="geometry" />
        </mxCell>
        <mxCell id="1wpc4b6oKfYbPvFzZ_pv-19" value="" style="edgeStyle=orthogonalEdgeStyle;rounded=0;orthogonalLoop=1;jettySize=auto;html=1;labelBackgroundColor=none;endArrow=block;endFill=0;endSize=8;strokeWidth=1;shadow=0;" edge="1" parent="WIyWlLk6GJQsqaUBKTNV-1" source="1wpc4b6oKfYbPvFzZ_pv-15" target="WIyWlLk6GJQsqaUBKTNV-11">
          <mxGeometry relative="1" as="geometry" />
        </mxCell>
        <mxCell id="1wpc4b6oKfYbPvFzZ_pv-15" value="&lt;font face=&quot;Verdana&quot;&gt;界面显示&lt;/font&gt;" style="rounded=0;whiteSpace=wrap;html=1;" vertex="1" parent="WIyWlLk6GJQsqaUBKTNV-1">
          <mxGeometry x="160" y="630" width="120" height="40" as="geometry" />
        </mxCell>
      </root>
    </mxGraphModel>
  </diagram>
</mxfile>
